<svg xmlns="http://www.w3.org/2000/svg" viewBox="0 0 178.88 180"><defs><style>.cls-1{opacity:0.69;}.cls-2{fill:#7171ea;}.cls-3{fill:#6d5de2;}.cls-4{opacity:0.7;}</style></defs><title>Blog_logo</title><g id="Layer_2" data-name="Layer 2"><g id="Layer_1-2" data-name="Layer 1"><g class="cls-1"><path class="cls-2" d="M.13.13H110.3a93.13,93.13,0,0,1,1.38,15.3C111.68,72,61.65,118.1.13,118.16Z"/><path class="cls-3" d="M110.2.25a93.7,93.7,0,0,1,1.35,15.18c0,56.5-49.9,102.48-111.3,102.61V.25h110m.21-.25H0V118.29c61.75,0,111.8-46.06,111.8-102.86A94.78,94.78,0,0,0,110.41,0Z"/></g><g class="cls-4"><path class="cls-2" d="M.13,179.88V77.27c61.47.06,111.47,46.05,111.55,102.61Z"/><path class="cls-3" d="M.25,77.39c61.31.13,111.15,46,111.3,102.36H.25V77.39M0,77.14V180H111.8c0-56.81-50-102.86-111.8-102.86Z"/></g><g class="cls-4"><path class="cls-2" d="M67.21,179.88c.07-56.56,50.07-102.55,111.55-102.61V179.88Z"/><path class="cls-3" d="M178.63,77.39V179.75H67.33c.15-56.39,50-102.23,111.3-102.36m.25-.25c-61.74,0-111.8,46.05-111.8,102.86h111.8V77.14Z"/></g><g class="cls-4"><path class="cls-2" d="M178.76,118.16C117.24,118.1,67.21,72,67.21,15.43A93.13,93.13,0,0,1,68.58.13H178.76Z"/><path class="cls-3" d="M178.63.25V118c-61.39-.13-111.3-46.11-111.3-102.61A92.68,92.68,0,0,1,68.69.25H178.63m.25-.25H68.47a95.91,95.91,0,0,0-1.39,15.43c0,56.8,50.06,102.86,111.8,102.86V0Z"/></g></g></g></svg>